<svg xmlns="http://www.w3.org/2000/svg" viewBox="0 0 512 512">
  <defs>
    <linearGradient id="bg" x1="0" x2="0" y1="0" y2="1">
      <stop offset="0%" stop-color="#f2eee3"/>
      <stop offset="100%" stop-color="#7ea152"/>
    </linearGradient>
    <linearGradient id="leaf" x1="0" x2="0" y1="0" y2="1">
      <stop offset="0%" stop-color="#c7df90"/>
      <stop offset="100%" stop-color="#6da247"/>
    </linearGradient>
    <linearGradient id="pot" x1="0" x2="0" y1="0" y2="1">
      <stop offset="0%" stop-color="#84563a"/>
      <stop offset="100%" stop-color="#60412d"/>
    </linearGradient>
  </defs>
  <rect width="512" height="512" rx="116" fill="url(#bg)"/>
  <ellipse cx="256" cy="114" rx="214" ry="118" fill="#ffffff" opacity="0.18"/>
  <rect x="88" y="86" width="336" height="348" rx="82" fill="#fffdf8" stroke="#ffffff" stroke-opacity="0.4" stroke-width="6"/>
  <ellipse cx="256" cy="360" rx="110" ry="24" fill="#30401f" opacity="0.12"/>
  <path d="M204 284h104a24 24 0 0 1 24 24v34a26 26 0 0 1-26 26H206a26 26 0 0 1-26-26v-34a24 24 0 0 1 24-24Z" fill="url(#pot)"/>
  <path d="M256 296V190" stroke="#79a84e" stroke-linecap="round" stroke-width="16"/>
  <path d="M244 210c-60-6-92-42-74-82 48-2 84 22 92 82Z" fill="url(#leaf)"/>
  <path d="M268 210c60-6 92-42 74-82-48-2-84 22-92 82Z" fill="url(#leaf)"/>
  <path d="M246 206c-26-14-46-36-54-58" stroke="#ffffff" stroke-linecap="round" stroke-width="8" opacity="0.7"/>
  <path d="M266 206c26-14 46-36 54-58" stroke="#ffffff" stroke-linecap="round" stroke-width="8" opacity="0.7"/>
</svg>
